<?xml version="1.0" encoding="UTF-8"?>
<svg width="512px" height="512px" viewBox="0 0 512 512" version="1.1" xmlns="http://www.w3.org/2000/svg" xmlns:xlink="http://www.w3.org/1999/xlink">
    <title>512sq</title>
    <g id="Compass" stroke="none" stroke-width="1" fill="none" fill-rule="evenodd">
        <g id="512sq">
            <rect id="sq_bg" fill-opacity="0.01" fill="#FFFFFF" x="0" y="0" width="512" height="512"></rect>
            <g id="ace-of-spades-svgrepo-com" transform="translate(149.5, 108)" fill="#000000" fill-rule="nonzero">
                <polygon id="Path" points="47.07 41 42.996 54 51.258 54 47.206 41"></polygon>
                <path d="M214,20 C214,8.954 205.046,0 194,0 L20,0 C8.954,0 0,8.954 0,20 L0,277 C0,288.046 8.954,297 20,297 L194,297 C205.046,297 214,288.046 214,277 L214,20 Z M52.879,59 L41.375,59 L39.146,66 L32.505,66 L43.783,33 L50.514,33 L61.746,66 L55.105,66 L52.879,59 Z M138.326,182.298 C128.193,185.536 119.019,182.411 113.198,176.356 C113.655,184.813 114.902,195.197 118.145,201.001 L96.52,201.001 C99.763,195.197 101.01,184.813 101.467,176.356 C95.646,182.412 86.471,185.537 76.339,182.298 C58.414,176.569 39.644,138.091 107.332,94.897 C175.022,138.091 156.252,176.568 138.326,182.298 Z M175.607,264 L173.378,257 L161.874,257 L159.645,264 L153.004,264 L164.282,231 L171.013,231 L182.245,264 L175.607,264 Z" id="Shape"></path>
                <polygon id="Path" points="167.57 239 163.496 252 171.758 252 167.706 239"></polygon>
            </g>
        </g>
    </g>
</svg>