<?xml version="1.0" encoding="UTF-8"?>
<svg width="512px" height="512px" viewBox="0 0 512 512" version="1.1" xmlns="http://www.w3.org/2000/svg" xmlns:xlink="http://www.w3.org/1999/xlink">
    <title>chicken</title>
    <defs>
        <polygon id="path-1" points="0 4.14104316e-15 170 4.14104316e-15 170 166 0 166"></polygon>
        <polygon id="path-3" points="3.1021569e-15 4.14104316e-15 170 4.14104316e-15 170 166 3.1021569e-15 166"></polygon>
        <polygon id="path-5" points="-1.03166552e-15 0 86 0 86 92 -1.03166552e-15 92"></polygon>
    </defs>
    <g id="Compass" stroke="none" stroke-width="1" fill="none" fill-rule="evenodd">
        <g id="chicken">
            <rect id="sq_bg" fill-opacity="0.01" fill="#FFFFFF" x="0" y="0" width="512" height="512"></rect>
            <g id="06-hen" transform="translate(10, 7)">
                <path d="M321.844566,455.817191 C321.863002,453.788211 321.752383,451.860026 321.440806,450.101701 C317.753506,429.33592 307.583933,427.532797 303.004306,410.203402 C301.695314,405.245747 323.806209,410.203402 323.806209,410.203402 C331.042536,420.234441 337.124737,438.881646 339.156439,455.632399 C378.10539,457.470987 377.915494,475.481686 369.375707,481.133711 C359.781352,487.485707 351.070106,476.79203 339.648694,472.274889 C338.745305,482.668046 335.074598,490 327.432669,490 C319.495755,490 319.348263,482.02034 320.321711,472.480214 C306.593892,477.361339 292.536061,488.573927 287.73704,480.387077 C282.265087,471.046675 288.695738,458.081361 321.844566,455.817191" id="Fill-1" fill="#FFCA05" fill-rule="nonzero"></path>
                <path d="M321.84327,486.894481 C321.84327,493.380907 327.058869,498 328.316517,498 C329.572297,498 334.789764,493.380907 334.789764,486.894481 C334.789764,483.277608 331.88951,481.933591 328.316517,481.933591 C324.739787,481.933591 321.84327,483.277608 321.84327,486.894481 M279.120588,486.682065 C279.684942,487.543317 285.735858,488.53395 290.9309,484.891973 C293.827417,482.860499 293.597564,480.116465 291.984858,477.662089 C290.374022,475.205782 287.993272,473.971836 285.094887,476.001378 C279.901713,479.643355 278.552497,485.81695 279.120588,486.682065 M366.836447,476.026482 C365.304097,478.749275 365.068638,481.761727 367.78202,483.922582 C372.64443,487.794354 378.344027,486.577787 378.882218,485.619982 C379.422278,484.662177 378.194529,477.928575 373.332119,474.056802 C370.618737,471.894016 368.368798,473.299827 366.836447,476.026482" id="Fill-3" fill="#FFF584" fill-rule="nonzero"></path>
                <path d="M169.155434,455.817191 C169.136998,453.788211 169.247617,451.860026 169.559194,450.101701 C173.246494,429.33592 183.416067,427.532797 187.995694,410.203402 C189.304686,405.245747 167.193791,410.203402 167.193791,410.203402 C159.957464,420.234441 153.875263,438.881646 151.843561,455.632399 C112.89461,457.470987 113.084506,475.481686 121.624293,481.133711 C131.218648,487.485707 139.929894,476.79203 151.351306,472.274889 C152.254695,482.668046 155.925402,490 163.567331,490 C171.504245,490 171.651737,482.02034 170.678289,472.480214 C184.406108,477.361339 198.463939,488.573927 203.26296,480.387077 C208.734913,471.046675 202.304262,458.081361 169.155434,455.817191" id="Fill-5" fill="#FFCA05" fill-rule="nonzero"></path>
                <path d="M161.684065,481.933949 C158.109245,481.933949 155.210895,483.277936 155.210895,486.894728 C155.210895,493.38101 160.4283,498 161.684065,498 C162.941699,498 168.157235,493.38101 168.157235,486.894728 C168.157235,483.277936 165.260753,481.933949 161.684065,481.933949 M204.905185,476.001869 C202.006834,473.97044 199.626113,475.20629 198.013426,477.662542 C196.402608,480.116863 196.172758,482.860837 199.069241,484.892265 C204.264222,488.53223 210.315066,487.54355 210.879413,486.680386 C211.447497,485.817222 210.098297,479.643764 204.905185,476.001869 M116.668995,474.055405 C111.806642,477.929022 110.578908,484.662474 111.117093,485.620258 C111.657146,486.578042 117.356676,487.794582 122.219028,483.922895 C124.932378,481.762089 124.696922,478.749704 123.16459,476.026972 C121.630388,473.300378 119.382345,471.894598 116.668995,474.055405" id="Fill-7" fill="#FFF584" fill-rule="nonzero"></path>
                <g id="Fill-9-Clipped" transform="translate(0, 189)">
                    <mask id="mask-2" fill="white">
                        <use xlink:href="#path-1"></use>
                    </mask>
                    <g id="path-1"></g>
                    <path d="M170,86.6411737 C170,86.6411737 142.058377,16.664143 69.4101578,1.78549183 C37.4020975,-4.76984271 17.7908038,7.88577613 10.6880433,20.9013323 C3.58155721,33.9206183 11.4294277,53.8589061 28.8948047,53.8589061 C-6.49791753,61.4642132 -11.6205484,102.959574 26.1006424,111.351894 C-4.63514267,142.123735 25.6349487,177.091736 78.2583384,162.638295 C130.881728,148.184855 170,86.6411737 170,86.6411737" id="Fill-9" fill="#FFDEA3" fill-rule="nonzero" mask="url(#mask-2)"></path>
                </g>
                <g id="Fill-12-Clipped" transform="translate(321, 189)">
                    <mask id="mask-4" fill="white">
                        <use xlink:href="#path-3"></use>
                    </mask>
                    <g id="path-3"></g>
                    <path d="M3.1021569e-15,86.6411737 C3.1021569e-15,86.6411737 27.9417453,16.664143 100.590283,1.78549183 C132.598484,-4.76984271 152.209863,7.88577613 159.312655,20.9013323 C166.419172,33.9206183 158.571267,53.8589061 141.105814,53.8589061 C176.498691,61.4642132 181.621344,102.959574 143.899988,111.351894 C174.635908,142.123735 144.365684,177.091736 91.7420637,162.638295 C39.1184434,148.184855 3.1021569e-15,86.6411737 3.1021569e-15,86.6411737" id="Fill-12" fill="#FFDEA3" fill-rule="nonzero" mask="url(#mask-4)"></path>
                </g>
                <g id="Fill-15-Clipped" transform="translate(196, 0)">
                    <mask id="mask-6" fill="white">
                        <use xlink:href="#path-5"></use>
                    </mask>
                    <g id="path-5"></g>
                    <path d="M62.6990465,92 C94.2932641,60.2915555 94.2133493,-3.36967505 59.6715771,0.138771075 C36.7174488,2.47027435 45.8834888,42.5721306 45.8834888,42.5721306 C19.5580716,9.46478416 -15.4724818,42.2214725 7.40916572,65.1858472 C33.7438753,91.6157683 62.6990465,92 62.6990465,92" id="Fill-15" fill="#EC1D24" fill-rule="nonzero" mask="url(#mask-6)"></path>
                </g>
                <path d="M245,425 C357.919599,425 397,392.749285 397,320.239239 C397,198.018352 303.583411,65 245,65 C186.416589,65 93,198.018352 93,320.239239 C93,392.749285 132.080401,425 245,425" id="Fill-18" fill="#FFE5B8" fill-rule="nonzero"></path>
                <path d="M214.884846,135 C228.767129,135 241.013346,141.956168 248.403659,152.564606 C254.946056,145.01471 264.564482,140.219936 275.32031,140.219936 C295.025943,140.219936 311,156.23935 311,175.999064 C311,195.758777 295.025943,211.780064 275.32031,211.780064 C264.564482,211.780064 254.946056,206.983417 248.403659,199.435394 C241.013346,210.043832 228.767129,217 214.884846,217 C192.304891,217 174,198.643133 174,175.999064 C174,153.356867 192.304891,135 214.884846,135" id="Fill-20" fill="#FEFEFE" fill-rule="nonzero"></path>
                <path d="M219,174.5 C219,180.299386 223.702087,185 229.499051,185 C235.297913,185 240,180.299386 240,174.5 C240,168.700614 235.297913,164 229.499051,164 C223.702087,164 219,168.700614 219,174.5" id="Fill-22" fill="#231F20" fill-rule="nonzero"></path>
                <path d="M256,174.5 C256,180.299386 260.702087,185 266.500949,185 C272.297913,185 277,180.299386 277,174.5 C277,168.700614 272.297913,164 266.500949,164 C260.702087,164 256,168.700614 256,174.5" id="Fill-24" fill="#231F20" fill-rule="nonzero"></path>
                <path d="M213.929113,228.746372 C210.487462,241.672878 217.006332,249.495388 226.905496,252.163386 C236.806519,254.833255 246.337531,251.33829 249.779183,238.413655 C253.220834,225.485278 249.271581,208.017937 239.372418,205.348068 C229.471395,202.68007 217.372624,215.817995 213.929113,228.746372" id="Fill-26" fill="#EC1D24" fill-rule="nonzero"></path>
                <path d="M285.973208,229.725253 C289.776585,243.729539 282.573075,252.204932 271.630556,255.09355 C260.688036,257.985902 250.154441,254.20101 246.349171,240.196724 C242.545793,226.190572 246.909549,207.269848 257.852068,204.377496 C268.794588,201.485145 282.167937,215.720968 285.973208,229.725253" id="Fill-28" fill="#EC1D24" fill-rule="nonzero"></path>
                <path d="M228,209.50979 C228,228.481819 243.710803,242 247.500936,242 C251.285454,242 267,228.481819 267,209.50979 C267,198.93263 258.268657,195 247.500936,195 C236.729472,195 228,198.93263 228,209.50979" id="Fill-30" fill="#FFCA05" fill-rule="nonzero"></path>
                <path d="M245,293 C335.631338,293 367,318.974336 367,377.370232 C367,384.892618 366.556824,392.463705 365.726335,400.034792 C341.969871,418.379975 303.320462,427 245,427 C186.679538,427 148.030129,418.379975 124.273665,400.034792 C123.443176,392.463705 123,384.892618 123,377.370232 C123,318.974336 154.3668,293 245,293" id="Fill-32" fill="#FFECCD" fill-rule="nonzero"></path>
            </g>
        </g>
    </g>
</svg>