<?xml version="1.0" encoding="UTF-8"?>
<svg width="512px" height="512px" viewBox="0 0 512 512" version="1.1" xmlns="http://www.w3.org/2000/svg" xmlns:xlink="http://www.w3.org/1999/xlink">
    <title>Compass</title>
    <g id="Compass" stroke="none" stroke-width="1" fill="none" fill-rule="evenodd">
        <g>
            <rect id="sq_bg" stroke="#979797" fill="#D8D8D8" x="0.5" y="0.5" width="511" height="511"></rect>
            <g id="next" transform="translate(59, 222)" fill="#000000" fill-rule="nonzero">
                <path d="M262,0 L330.5,0 L330.5,12.7 L303.3,12.7 L303.3,79.3 L289.7,79.3 L289.7,12.7 L262,12.7 L262,0 Z M149,0 L149,12.7 L94,12.7 L94,33.1 L138.3,33.1 L138.3,45.7 L94,45.7 L94,66.7 L149,66.7 L149,79.3 L80.5,79.3 L80.5,0 L149.2,0 L149,0 Z M183.3,0 L165.5,0 L229.3,79.4 L247.2,79.4 L215.2,39.7 L247.2,0.1 L229.3,0.1 L206.3,28.7 L183.3,0.1 L183.3,0 Z M201.6,56.7 L192.6,45.7 L165.5,79.4 L183.3,79.4 L201.6,56.7 L201.6,56.7 Z" id="Shape"></path>
                <path d="M81,79.3 L17,0 L0,0 L0,79.3 L13.6,79.3 L13.6,17 L63.8,79.3 L81,79.3 Z M333.6,78.9 C332.6,78.9 331.8,78.5 331.1,77.9 C330.4,77.3 330,76.3 330,75.3 C330,74.3 330.3,73.5 331,72.8 C331.7,72.1 332.6,71.8 333.6,71.8 C334.6,71.8 335.4,72.1 336.1,72.8 C337.308248,73.9024321 337.560318,75.7089308 336.7,77.1 C336.064747,78.1647444 334.938423,78.840539 333.7,78.9 L333.6,78.9 Z M356.8,45.4 L362.8,45.4 L362.8,68.7 C362.8,70.8 362.4,72.7 361.5,74.2 C360.598055,75.7092731 359.278191,76.9249372 357.7,77.7 C356.1,78.5 354.2,79 352,79 C350,79 348.3,78.6 346.7,78 C345.1,77.4 343.9,76.2 343,74.8 C342.1,73.5 341.6,71.8 341.6,69.8 L347.6,69.8 C347.7,70.6 347.9,71.4 348.3,72 C348.7,72.6 349.3,73.2 349.9,73.5 C350.6,73.9 351.4,74 352.3,74 C353.3,74 354.1,73.8 354.7,73.4 C355.405582,72.9786139 355.964243,72.35012 356.3,71.6 C356.6,70.8 356.8,69.8 356.8,68.6 L356.8,45.5 L356.8,45.4 Z M387.7,54.5 C387.576959,53.150746 386.839181,51.9334119 385.7,51.2 C384.410475,50.4078972 382.911486,50.024435 381.4,50.1 C380.1,50.1 379,50.3 378.1,50.6 C377.2,51 376.5,51.6 376.1,52.2 C375.170093,53.3381014 375.050256,54.9359248 375.8,56.2 C376.1,56.7 376.5,57.1 377.1,57.4 L378.9,58.4 L380.9,58.9 L384.1,59.7 C385.4,60 386.6,60.4 387.8,60.9 C388.946449,61.3455941 390.023858,61.9516367 391,62.7 C392.95516,64.2832103 394.063685,66.6850154 394,69.2 C394,71.2 393.5,72.9 392.5,74.3 C391.398229,75.8634439 389.871201,77.0781252 388.1,77.8 C386.3,78.6 384,79 381.3,79 C378.7,79 376.4,78.6 374.5,77.8 C372.5,77 371.1,75.8 370,74.3 C368.887572,72.6446265 368.295547,70.6944269 368.299975,68.7 L374.3,68.7 C374.372404,70.8206633 375.775449,72.664666 377.8,73.3 C378.8,73.7 380,73.9 381.2,73.9 C382.5,73.9 383.7,73.7 384.7,73.3 C385.7,72.9 386.5,72.3 387.1,71.6 C387.619289,70.9076153 387.9,70.0654809 387.9,69.2 C387.9,68.3 387.7,67.6 387.2,67 C386.556033,66.4543075 385.851396,65.9845496 385.1,65.6 L381.9,64.6 L378.1,63.6 C375.3,62.9 373.1,61.9 371.5,60.4 C369.883152,58.9578642 369.00166,56.8643202 369.1,54.7 C369.084356,52.8889512 369.683696,51.1261866 370.8,49.7 C371.874798,48.1513644 373.36543,46.9380586 375.1,46.2 C377.1,45.4 379.1,45 381.5,45 C383.8,45 385.9,45.4 387.7,46.2 C389.5,47 390.9,48.2 392,49.6 C393,51 393.5,52.6 393.5,54.6 L387.7,54.6 L387.7,54.5 Z" id="Shape"></path>
            </g>
        </g>
    </g>
</svg>