<?xml version="1.0" encoding="UTF-8"?>
<svg width="512px" height="512px" viewBox="0 0 512 512" version="1.1" xmlns="http://www.w3.org/2000/svg" xmlns:xlink="http://www.w3.org/1999/xlink">
    <title>Icon</title>
    <defs>
        <linearGradient x1="50%" y1="0%" x2="50%" y2="100%" id="linearGradient-1">
            <stop stop-color="#C09F52" offset="0%"></stop>
            <stop stop-color="#937F50" offset="100%"></stop>
        </linearGradient>
    </defs>
    <g id="Icon" stroke="none" stroke-width="1" fill="none" fill-rule="evenodd">
        <path d="M146.141456,-3.93619317e-15 L365.858544,5.90428975e-15 C416.675112,-3.43056238e-15 435.102427,5.29105984 453.680205,15.2265641 C472.257983,25.1620684 486.837932,39.7420171 496.773436,58.3197949 C506.70894,76.8975727 512,95.3248882 512,146.141456 L512,365.858544 C512,416.675112 506.70894,435.102427 496.773436,453.680205 C486.837932,472.257983 472.257983,486.837932 453.680205,496.773436 C435.102427,506.70894 416.675112,512 365.858544,512 L146.141456,512 C95.3248882,512 76.8975727,506.70894 58.3197949,496.773436 C39.7420171,486.837932 25.1620684,472.257983 15.2265641,453.680205 C5.29105984,435.102427 1.14352079e-15,416.675112 -1.96809658e-15,365.858544 L3.93619317e-15,146.141456 C-2.28704159e-15,95.3248882 5.29105984,76.8975727 15.2265641,58.3197949 C25.1620684,39.7420171 39.7420171,25.1620684 58.3197949,15.2265641 C76.8975727,5.29105984 95.3248882,2.28704159e-15 146.141456,-3.93619317e-15 Z" id="Path" fill="url(#linearGradient-1)"></path>
        <path d="M460,255.5 L374.036438,376.280357 C369.62805,382.344643 364.371895,387.313988 358.267974,391.188393 C352.164052,395.062797 345.381918,397 337.921569,397 L124.284314,397 C115.891422,397 108.706597,394.031027 102.729841,388.09308 C96.7530842,382.155133 93.7647059,375.016965 93.7647059,366.678572 L93.7647059,144.321428 C93.7647059,135.983035 96.7530842,128.844867 102.729841,122.90692 C108.706597,116.968973 115.891422,114 124.284314,114 L337.921569,114 C345.381918,114 352.164052,115.937203 358.267974,119.811607 C364.371895,123.686012 369.62805,128.655357 374.036438,134.719643 L460,255.5 Z" id="Path" stroke="#C09F52" stroke-width="20" fill="#FFFFFF"></path>
    </g>
</svg>