<?xml version="1.0" encoding="UTF-8"?>
<svg width="512px" height="512px" viewBox="0 0 512 512" version="1.1" xmlns="http://www.w3.org/2000/svg" xmlns:xlink="http://www.w3.org/1999/xlink">
    <title>iOS</title>
    <g id="Page-1" stroke="none" stroke-width="1" fill="none" fill-rule="evenodd">
        <g id="iOS" fill-rule="nonzero">
            <path d="M146.141456,0 L365.858544,0 C416.675112,0 435.102427,5.29105984 453.680205,15.2265641 C472.257983,25.1620684 486.837932,39.7420171 496.773436,58.3197949 C506.70894,76.8975727 512,95.3248882 512,146.141456 L512,365.858544 C512,416.675112 506.70894,435.102427 496.773436,453.680205 C486.837932,472.257983 472.257983,486.837932 453.680205,496.773436 C435.102427,506.70894 416.675112,512 365.858544,512 L146.141456,512 C95.3248882,512 76.8975727,506.70894 58.3197949,496.773436 C39.7420171,486.837932 25.1620684,472.257983 15.2265641,453.680205 C5.29105984,435.102427 0,416.675112 0,365.858544 L0,146.141456 C0,95.3248882 5.29105984,76.8975727 15.2265641,58.3197949 C25.1620684,39.7420171 39.7420171,25.1620684 58.3197949,15.2265641 C76.8975727,5.29105984 95.3248882,0 146.141456,0 Z" id="background" fill-opacity="0.01" fill="#FFFFFF"></path>
            <g id="Group">
                <polygon id="Path" fill="#CE0000" points="256 0 512 0 512 512 256 512"></polygon>
                <polygon id="Path" fill="#FFFFFF" points="0 0 256 0 256 512 0 512"></polygon>
            </g>
            <path d="M256.241883,44 L256.289732,44.0882987 C257.842218,46.9653131 296.654379,119.784675 296.654379,209.184854 C296.654379,228.830302 294.718151,247.588843 291.770016,265.06932 C296.598256,254.617768 302.063403,244.041217 308.494539,233.582012 C352.242075,162.389693 419.226903,124.039276 419.226903,124.039276 C419.226903,124.039276 415.299174,201.132967 371.567794,272.326137 C362.782062,286.61103 353.071159,299.510715 343.152771,311.104276 C394.997042,289.195899 447.359897,292.204888 449.433673,292.334011 L449.497372,292.338082 C449.497372,292.338082 417.195437,332.583911 364.111997,355.182595 C343.858555,363.802511 323.52178,368.587384 306.086371,371.2379 C314.31768,371.846744 323.089806,373.050828 332.028599,375.24301 C369.893675,384.502195 396.428295,407.389124 397.474534,408.300897 L397.506622,408.32896 C397.506622,408.32896 361.703829,416.634249 323.04984,407.180148 C298.008123,401.044082 278.059954,389.035554 267.033571,381.294893 L276.261481,455.116469 C276.690053,458.624129 275.722364,462.150496 273.577802,464.813767 C271.431539,467.471085 268.34905,469 265.095642,469 L247.416185,469 C244.161927,469 241.079438,467.471085 238.934876,464.813767 C236.790314,462.150496 235.820074,458.624129 236.250347,455.116469 L245.478256,381.28894 C234.453574,389.027901 214.503704,401.043231 189.446682,407.180148 C150.793543,416.635099 114.9899,408.32896 114.9899,408.32896 L115.021987,408.300897 C116.068195,407.389124 142.602081,384.502195 180.471323,375.24301 C189.405015,373.050828 198.177141,371.846744 206.409301,371.2379 C188.979844,368.587384 168.643069,363.802511 148.389627,355.182595 C95.3044864,332.583911 63,292.338082 63,292.338082 C63,292.338082 116.428678,288.748789 169.347152,311.105126 C159.427064,299.511566 149.71531,286.61188 140.932129,272.326987 C97.201599,201.133818 93.2704687,124.040126 93.2704687,124.040126 C93.2704687,124.040126 160.259548,162.390543 204.001983,233.582862 C210.419513,244.042067 215.898265,254.611816 220.728207,265.065068 C217.783473,247.590543 215.845544,228.831152 215.845544,209.186555 C215.845544,117.960182 256.241883,44 256.241883,44 Z" id="leaf" fill="#000000"></path>
        </g>
    </g>
</svg>