<?xml version="1.0" encoding="UTF-8"?>
<svg width="512px" height="512px" viewBox="0 0 512 512" version="1.1" xmlns="http://www.w3.org/2000/svg" xmlns:xlink="http://www.w3.org/1999/xlink">
    <title>iOS</title>
    <g id="Page-1" stroke="none" stroke-width="1" fill="none" fill-rule="evenodd">
        <g id="iOS" fill-rule="nonzero">
            <path d="M146.141456,0 L365.858544,0 C416.675112,0 435.102427,5.29105984 453.680205,15.2265641 C472.257983,25.1620684 486.837932,39.7420171 496.773436,58.3197949 C506.70894,76.8975727 512,95.3248882 512,146.141456 L512,365.858544 C512,416.675112 506.70894,435.102427 496.773436,453.680205 C486.837932,472.257983 472.257983,486.837932 453.680205,496.773436 C435.102427,506.70894 416.675112,512 365.858544,512 L146.141456,512 C95.3248882,512 76.8975727,506.70894 58.3197949,496.773436 C39.7420171,486.837932 25.1620684,472.257983 15.2265641,453.680205 C5.29105984,435.102427 0,416.675112 0,365.858544 L0,146.141456 C0,95.3248882 5.29105984,76.8975727 15.2265641,58.3197949 C25.1620684,39.7420171 39.7420171,25.1620684 58.3197949,15.2265641 C76.8975727,5.29105984 95.3248882,0 146.141456,0 Z" id="background" fill-opacity="0.01" fill="#FFFFFF"></path>
            <g id="youngun" transform="translate(25, 22)">
                <path d="M133.532498,202 C21.9303602,236.850093 -7.64817417,259.962873 1.5793955,278.959679 C4.86107144,285.717114 12.5221268,294.892119 21.0933613,297.110675 C58.0173611,306.676923 136.937666,276.544371 212,281.648632 L133.532498,202 Z" id="Fill-31" fill="#595959"></path>
                <path d="M127,352 C105.709199,346.711252 85.7098396,314.923744 80.6790637,276.494925 C77.2277175,250.142884 87.2352716,242.962841 103.817033,242 C106.028684,282.184857 114.231819,319.61874 127,352" id="Fill-32" fill="#995542"></path>
                <path d="M394,352 C415.290801,346.711252 435.29016,314.923744 440.320936,276.494925 C443.772282,250.142884 433.764728,242.962841 417.182967,242 C414.971316,282.184857 406.768181,319.61874 394,352 Z" id="Fill-33" fill="#995542"></path>
                <path d="M419,219.892358 C419,356.365973 348.261086,467 261,467 C173.738914,467 103,356.365973 103,219.892358 C103,183.60085 108.003177,149.137401 116.987351,118.094703 C163.73256,74.5572338 405.106616,54.2132414 413.084655,152.676977 C414.835652,174.321175 419,196.593768 419,219.892358 Z" id="Fill-34" fill="#BC6957"></path>
                <path d="M91.4842043,108.366148 C103.170991,-32.9689224 376.330189,-22.554543 399.195841,62.4250577 C409.22616,99.7031016 416.293601,147.817945 419.903967,178.661497 C421.425445,191.676617 423.200885,189.815683 411.356231,188.07805 C364.256741,181.15492 309.806106,180.271261 259.059643,185.111973 C204.945334,191.484815 136.09213,207.301611 88.7135115,226 C87.219488,199.337271 88.0385698,150.035083 91.4842043,108.366148 Z" id="Fill-35" fill="#595959"></path>
                <path d="M108.994415,73.0842741 C124.231446,43.5394081 153.22327,22.9372058 206.418857,15.7006477 C329.458282,-1.00122702 355.746799,39.2223396 372.507304,128.446361 C380.617225,171.621651 377.281619,168.036758 333.300186,165.545521 C302.79176,163.816391 275.059952,169.586297 244.565272,172.415992 C203.186343,177.011655 153.397381,192.157083 114.982928,205.741459 C96.7837137,212.179071 97.2144101,204.392231 96.6760396,188.26136 C95.3289679,147.99635 94.5660855,101.061181 108.994415,73.0842741 Z" id="Fill-36" fill="#414141"></path>
                <path d="M182.492683,214.749878 C219.469688,208.665188 253.000497,218.918257 263.400707,238.21842 C274.268779,219.217466 308.404384,209.165393 346.027265,215.188414 C389.51781,222.152462 414.481054,244.08841 409.332299,281.603816 C399.130645,355.896882 285.508857,334.125385 263.263772,276.204339 C241.347331,334.19619 130.605742,355.912871 120.652852,281.421093 C115.620492,243.761792 140.00861,221.741334 182.492683,214.749878" id="Fill-37" fill="#E8B003"></path>
                <path d="M182.777968,225.44854 C219.336499,219.663011 251.985639,231.720724 255.026277,252.479368 C264.47969,316.989383 139.42944,351.655028 129.562226,280.621579 C125.229888,249.45532 146.21715,231.231806 182.777968,225.44854 Z M343.22079,225.44854 C306.662259,219.663011 274.01312,231.720724 270.972481,252.479368 C261.519068,316.989383 386.569317,351.655028 396.438818,280.621579 C400.766583,249.45532 379.781607,231.231806 343.22079,225.44854 L343.22079,225.44854 Z" id="Fill-38" fill="#414141"></path>
                <path d="M204.420958,229.371266 C211.854102,229.892906 216.88968,231.101641 217.780467,237.147613 C222.22753,267.370578 181.8536,295.7138 155.796375,293.919081 C145.858036,293.234285 137.229543,291.591233 135.445679,278.888028 C133.833562,267.421133 136.528821,256.317319 144.612309,247.736681 C158.029066,233.500727 185.645741,228.047632 204.420958,229.371266 Z M317.415751,228.128062 C333.202596,226.673444 333.454489,237.869177 327.131966,248.57774 C320.48427,259.835518 304.908099,267.933582 292.927134,269.379008 C283.918511,270.46595 278.379146,270.401607 276.833437,259.306984 C275.871662,252.408464 277.870779,247.359813 281.990381,242.713308 C290.433389,233.188202 305.121064,229.258665 317.415751,228.128062 L317.415751,228.128062 Z" id="Fill-39" fill="#595959"></path>
            </g>
        </g>
    </g>
</svg>