<?xml version="1.0" encoding="UTF-8"?>
<svg width="512px" height="512px" viewBox="0 0 512 512" version="1.1" xmlns="http://www.w3.org/2000/svg" xmlns:xlink="http://www.w3.org/1999/xlink">
    <title>iOS</title>
    <g id="Page-1" stroke="none" stroke-width="1" fill="none" fill-rule="evenodd">
        <g id="iOS" fill-rule="nonzero">
            <path d="M146.141456,0 L365.858544,0 C416.675112,0 435.102427,5.29105984 453.680205,15.2265641 C472.257983,25.1620684 486.837932,39.7420171 496.773436,58.3197949 C506.70894,76.8975727 512,95.3248882 512,146.141456 L512,365.858544 C512,416.675112 506.70894,435.102427 496.773436,453.680205 C486.837932,472.257983 472.257983,486.837932 453.680205,496.773436 C435.102427,506.70894 416.675112,512 365.858544,512 L146.141456,512 C95.3248882,512 76.8975727,506.70894 58.3197949,496.773436 C39.7420171,486.837932 25.1620684,472.257983 15.2265641,453.680205 C5.29105984,435.102427 0,416.675112 0,365.858544 L0,146.141456 C0,95.3248882 5.29105984,76.8975727 15.2265641,58.3197949 C25.1620684,39.7420171 39.7420171,25.1620684 58.3197949,15.2265641 C76.8975727,5.29105984 95.3248882,0 146.141456,0 Z" id="background" fill-opacity="0.01" fill="#FFFFFF"></path>
            <g id="hipster" transform="translate(78.000000, 12.000000)">
                <path d="M82.9122084,188.680825 C85.288117,199.744272 86.6125788,212.021943 86.6125788,224.953782 C86.6125788,273.582453 67.8963756,313 44.8051614,313 C21.7184594,313 3,273.582453 3,224.953782 C3,167.933418 40.8362881,188.680825 82.9122084,188.680825 Z M275.087791,188.680825 C272.711883,199.744272 271.387421,212.021943 271.387421,224.953782 C271.387421,273.582453 290.103625,313 313.194839,313 C336.281542,313 355,273.582453 355,224.953782 C355,167.933418 317.163711,188.680825 275.087791,188.680825 L275.087791,188.680825 Z" id="Fill-259" fill="#F49A6A"></path>
                <path d="M317.046333,82 C326.008871,112.897165 331,147.199044 331,183.320412 C331,210.085067 328.356966,235.851277 323.416139,259.970851 C314.451313,303.743161 304.384462,350.949753 282.350793,380.036529 C228.260044,451.428652 118.569547,447.914767 65.322466,377.755347 C43.7552145,349.337233 33.1076274,305.612686 23.994189,263.057158 C18.6395295,238.052855 25.7638328,211.797658 25.7638328,183.889001 C25.7638328,147.767634 20.7544142,112.897165 29.7169526,82 L317.046333,82" id="Fill-260" fill="#FAB385"></path>
                <path d="M173.667791,228.383267 C172.022579,227.170576 170.019318,222.08259 168.011525,221.264521 C164.761891,219.943198 158.192373,220.291265 154.351279,220.291265 C122.172199,220.291265 89.990853,220.291265 57.8117734,220.291265 C49.4633415,220.291265 44.7996411,222.763205 46.2680949,232.136627 C49.1959381,250.836914 52.1260469,269.537202 55.0538901,288.237489 C56.2798678,296.065673 60.0144538,297.81931 66.4683988,298.295962 C92.6308971,300.233608 118.793395,300.040731 144.955894,301.978377 C149.952716,302.348615 154.661738,297.932376 157.177146,291.1883 C161.924693,278.460576 166.67224,267.861159 171.417521,255.133435 C174.390687,247.165583 174.098356,244.46751 179,243.92213 C183.894846,243.376752 183.609314,247.165583 186.580212,255.133435 C191.32776,267.861159 196.075307,278.460576 200.822854,291.1883 C203.338262,297.932376 208.047285,302.348615 213.044107,301.978377 C239.206605,300.040731 265.369103,300.233608 291.531601,298.295962 C297.985547,297.81931 301.720133,296.065673 302.946111,288.237489 C305.873954,269.537202 308.804062,250.836914 311.731905,232.136627 C313.200359,222.763205 308.536659,220.291265 300.188227,220.291265 C270.413515,220.291265 240.638801,220.30235 210.864086,220.291265 C209.803536,220.291265 203.528617,220.036311 198.010585,220.00084 C192.977504,219.967585 191.989471,220.92754 190.965179,221.871977 C189.24745,223.452689 187.604504,228.139399 183.96283,229.425252 C181.957303,230.134689 175.35606,229.626998 173.667791,228.383267" id="Fill-261" fill="#6E4229"></path>
                <path d="M101.149146,224.357924 C118.507701,224.357924 139.34573,223.660826 150.809271,224.212328 C158.389227,224.578524 159.142656,225.4146 161.857285,227.636046 C163.133548,228.679486 163.014826,231.553908 163.078754,233.04296 C163.491998,242.636872 116.644676,254 82.598803,254 C48.555213,254 48.0666255,241.809622 48.0666255,232.21571 C48.0666255,228.269168 47.0232399,225.824916 53.1945111,224.803536 C62.0256161,223.343162 81.1558718,224.357924 101.149146,224.357924 Z M218.693253,224.188062 C227.837145,224.188062 268.499498,223.826276 274.533782,224.110852 C278.522391,224.300568 278.928785,224.748386 280.353453,225.915362 C281.022407,226.460246 280.965328,227.9868 280.999464,228.763314 C281.207339,233.815062 220.862216,241.044138 202.928315,241.044138 C195.154294,241.044138 192.969351,240.29189 191.69537,238.251336 C190.441938,236.235048 188.613158,225.220472 193.432824,224.424104 C198.085819,223.654208 208.161225,224.188062 218.693253,224.188062 L218.693253,224.188062 Z" id="Fill-264" fill="#835B3E"></path>
                <path d="M14.1135527,126.363488 C22.2442002,139.11319 37.9856965,157.492691 57.3725923,167.569846 C114.450554,197.238792 245.825655,144.685589 296.525304,110.948127 C299.115217,116.676653 299.439808,160.523415 326.106151,224.526782 C325.329859,232.082927 325.250413,250.680547 320.136414,273.300764 C311.345237,312.172089 287.089486,383.573177 255.783543,407.975091 C245.945957,415.64374 196.801166,420.903881 191.491958,402.044516 C188.947442,393.012044 164.174162,393.012044 161.629646,402.044516 C156.320438,420.903881 107.175645,415.64374 97.3380608,407.975091 C66.0321176,383.573177 41.7740972,312.172089 32.9851897,273.300764 C26.7952745,245.923229 27.9824125,224.434941 26.3776195,221.287123 C22.9296986,214.518507 23.6242765,250.147873 27.8711892,278.907602 C34.0043575,320.435401 49.2169759,379.761812 69.3597357,426.444137 C77.1408245,444.476942 88.0724822,459.648928 95.9125873,472.630526 C100.238945,479.791758 119.718905,484.521524 143.777178,486.608586 C154.552215,487.540765 165.86748,488 176.740121,488 C213.909118,487.983892 251.03045,482.859214 257.209015,472.630526 C265.04685,459.648928 275.980779,444.476942 283.761867,426.444137 C303.904626,379.761812 319.117245,320.435401 325.250413,278.907602 C329.190895,252.228053 332.620657,216.123414 334.132385,189.269367 C336.994683,138.461125 332.829484,99.0777931 320.824181,75.7205589 C312.464279,7.88286666 169.528768,-35.4748462 78.4868529,39.0074776 C68.9103032,46.8437347 67.0104284,47.2845671 53.7135737,46.37535 C36.9551789,45.2296448 25.9122981,38.1005566 17.7680313,40.0039427 C12.3884572,41.2598562 8.46386504,45.1148448 5.79223675,51.5643158 C-4.80348123,77.1532648 -0.179771317,103.943023 14.1135527,126.363488" id="Fill-265" fill="#412319"></path>
                <path d="M16.9331129,99.6091756 C22.4380393,125.358417 50.4291524,152.175342 80.1661721,159.214478 C119.932529,168.625255 149.397812,159.103029 188.013819,145.840565 C204.886384,140.045203 247.28179,116.257469 276.212659,95.8065263 C298.341059,80.163506 313.904762,82.9140741 293.476977,64.0301085 C282.824911,54.1846791 253.789878,50.3775717 215.069706,54.8734355 C178.756665,59.0884473 139.891567,81.4786071 104.289571,90.0802622 C84.9419389,94.7544453 59.6229005,83.698677 43.9640908,82.2832711 C17.3565688,79.8804246 11.2832604,73.2023839 16.9331129,99.6091756" id="Fill-266" fill="#522D21"></path>
                <path d="M147,473 C124.75375,451.823532 104.24625,434.176468 82,413 C86.2783927,433.369412 94.781786,460.578821 116.213214,466.91294 C127.054286,470.115295 136.156607,469.795292 147,473" id="Fill-267" fill="#522D21"></path>
                <path d="M165.236536,339.164589 C161.592475,339.626675 158.10935,340.743383 154.391717,342.061687 C133.1573,349.584174 124.273607,352.682868 102,346.940769 C103.020797,356.737444 121.641146,365.048196 130.945573,366.878418 C148.312917,370.294228 165.153769,370.006558 179.261,362.88953 C194.057958,370.353122 214.529076,369.283982 233.512682,363.729892 C242.329703,361.149912 252.070956,355.518806 255,346.340511 C243.874693,348.340619 239.837486,349.371252 231.335441,348.037091 C221.704544,346.526251 212.609334,345.062979 204.132582,342.061687 C199.858567,340.546317 195.892634,339.295967 191.641613,339.001501 C190.35412,338.910895 184.891477,342.951881 178.971314,342.983593 C172.828139,343.013039 166.218249,339.040007 165.236536,339.164589" id="Fill-268" fill="#412319"></path>
            </g>
        </g>
    </g>
</svg>