<?xml version="1.0" encoding="UTF-8"?>
<svg width="512px" height="512px" viewBox="0 0 512 512" version="1.1" xmlns="http://www.w3.org/2000/svg" xmlns:xlink="http://www.w3.org/1999/xlink">
    <title>iOS</title>
    <g id="Page-1" stroke="none" stroke-width="1" fill="none" fill-rule="evenodd">
        <g id="iOS" fill-rule="nonzero">
            <path d="M146.141456,0 L365.858544,0 C416.675112,0 435.102427,5.29105984 453.680205,15.2265641 C472.257983,25.1620684 486.837932,39.7420171 496.773436,58.3197949 C506.70894,76.8975727 512,95.3248882 512,146.141456 L512,365.858544 C512,416.675112 506.70894,435.102427 496.773436,453.680205 C486.837932,472.257983 472.257983,486.837932 453.680205,496.773436 C435.102427,506.70894 416.675112,512 365.858544,512 L146.141456,512 C95.3248882,512 76.8975727,506.70894 58.3197949,496.773436 C39.7420171,486.837932 25.1620684,472.257983 15.2265641,453.680205 C5.29105984,435.102427 0,416.675112 0,365.858544 L0,146.141456 C0,95.3248882 5.29105984,76.8975727 15.2265641,58.3197949 C25.1620684,39.7420171 39.7420171,25.1620684 58.3197949,15.2265641 C76.8975727,5.29105984 95.3248882,0 146.141456,0 Z" id="background" fill-opacity="0.01" fill="#FFFFFF"></path>
            <g id="punk" transform="translate(117, 88)">
                <path d="M62.8836841,178.051739 C64.7569133,186.506555 65.797399,195.892995 65.797399,205.775953 C65.797399,242.948013 51.0690231,273.079365 32.8995871,273.079365 C14.7301513,273.079365 0,242.948013 0,205.775953 C0,162.19304 29.7745793,178.051739 62.8836841,178.051739 Z M214.11454,178.051739 C212.244863,186.506555 211.202601,195.892995 211.202601,205.775953 C211.202601,242.948013 225.930977,273.079365 244.102188,273.079365 C262.271624,273.079365 277,242.948013 277,205.775953 C277,162.19304 247.22542,178.051739 214.11454,178.051739 L214.11454,178.051739 Z" id="Fill-41" fill="#F49A6A"></path>
                <path d="M250.262821,257.015873 L254.289311,257.015873 C256.358033,257.015873 258.047368,258.378418 258.047368,260.046492 L258.047368,287.570657 C258.047368,289.238731 256.358033,290.603175 254.289311,290.603175 L250.262821,290.603175 C248.19589,290.603175 246.504764,289.238731 246.504764,287.570657 L246.504764,260.046492 C246.504764,258.378418 248.19589,257.015873 250.262821,257.015873 L250.262821,257.015873 Z" id="Fill-42" fill="#4D4D4D"></path>
                <path d="M137.770172,368 C105.303845,367.991007 72.6914016,353.409094 51.5259222,325.110431 C15.2819543,276.646745 20.6971665,214.568839 20.6971665,160.998694 C20.6971665,93.7801549 78.9280727,63.2691142 137.770172,64.2781745 C196.612273,63.2691142 254.84496,93.7801549 254.84496,160.998694 C254.84496,214.568839 260.260173,276.646745 224.014422,325.110431 C202.850726,353.409094 170.238281,367.991007 137.770172,368" id="Fill-52" fill="#FAB385"></path>
                <path d="M121.376757,163.305781 C118.593153,138.521732 114.426737,87.5799879 101.048172,68.2028359 C99.4190082,55.187922 98.1926398,42.6095782 97.7628714,31.3263328 C97.5039315,24.4964713 97.575859,17.4127048 102.056959,12.0971399 C108.307482,4.67909555 121.098037,0.174565324 135.447626,0.00651310159 C148.869348,-0.152405849 166.013331,2.59488266 173.866045,8.46757721 C180.898782,13.7228625 179.417071,21.4861445 178.622269,31.9053823 C177.787907,42.8671366 176.568731,54.8317243 175.105,67.1232829 C158.381795,88.2467169 157.489891,138.116214 154.222572,162.861903 C153.913283,171.156742 126.2139,171.827125 121.376757,163.305781" id="Fill-56" fill="#335B60"></path>
                <path d="M127.681581,164.513427 L125.314533,88.335752 C124.509285,62.4142695 122.677909,30.6571555 121.07263,18.7364904 C119.968239,10.5297378 132.725256,12.1562688 138.605483,11.9412053 C144.706589,11.7225272 155.167864,10.0562366 154.50697,19.1286651 C153.489539,33.1349043 154.164347,57.3991324 153.016477,93.2478756 L150.73291,164.513427 C150.576382,169.430973 127.812022,168.709877 127.681581,164.513427" id="Fill-65" fill="#3D6E6E"></path>
            </g>
        </g>
    </g>
</svg>