<?xml version="1.0" encoding="UTF-8"?>
<svg width="512px" height="512px" viewBox="0 0 512 512" version="1.1" xmlns="http://www.w3.org/2000/svg" xmlns:xlink="http://www.w3.org/1999/xlink">
    <title>iOS</title>
    <g id="Page-1" stroke="none" stroke-width="1" fill="none" fill-rule="evenodd">
        <g id="iOS" fill-rule="nonzero">
            <path d="M146.141456,0 L365.858544,0 C416.675112,0 435.102427,5.29105984 453.680205,15.2265641 C472.257983,25.1620684 486.837932,39.7420171 496.773436,58.3197949 C506.70894,76.8975727 512,95.3248882 512,146.141456 L512,365.858544 C512,416.675112 506.70894,435.102427 496.773436,453.680205 C486.837932,472.257983 472.257983,486.837932 453.680205,496.773436 C435.102427,506.70894 416.675112,512 365.858544,512 L146.141456,512 C95.3248882,512 76.8975727,506.70894 58.3197949,496.773436 C39.7420171,486.837932 25.1620684,472.257983 15.2265641,453.680205 C5.29105984,435.102427 0,416.675112 0,365.858544 L0,146.141456 C0,95.3248882 5.29105984,76.8975727 15.2265641,58.3197949 C25.1620684,39.7420171 39.7420171,25.1620684 58.3197949,15.2265641 C76.8975727,5.29105984 95.3248882,0 146.141456,0 Z" id="background" fill-opacity="0.01" fill="#FFFFFF"></path>
            <g id="rasta" transform="translate(78.000000, 12.000000)">
                <path d="M279.182511,63.1325383 C270.267174,115.776748 268.756214,156.544851 267.414267,215.289025 C266.197387,268.498048 270.431115,336.495718 281.45571,368.851895 C285.427471,380.503959 266.445833,387.582929 263.881935,379.594611 C251.299057,340.385389 245.796055,273.541814 247.219129,214.680912 C248.596569,154.379739 250.257947,112.470717 259.311874,59 L279.182511,63.1325383" id="Fill-66" fill="#2C1C1C"></path>
                <path d="M103.473077,155.134538 C105.390971,164.553617 106.459379,175.010576 106.459379,186.020679 C106.459379,227.432187 91.3575944,261 72.7287538,261 C54.1017849,261 39,227.432187 39,186.020679 C39,137.467165 69.527273,155.134538 103.473077,155.134538 Z M258.526923,155.134538 C256.609028,164.553617 255.54062,175.010576 255.54062,186.020679 C255.54062,227.432187 270.642406,261 289.271245,261 C307.898214,261 323,227.432187 323,186.020679 C323,137.467165 292.472727,155.134538 258.526923,155.134538 L258.526923,155.134538 Z" id="Fill-67" fill="#E4874C"></path>
                <path d="M263.801252,155.470164 C255.418552,207.494842 246.967171,271.465106 247.059982,329.261666 C247.150937,385.336102 255.143831,435.316458 279,461.513046 L262.555726,476.441786 C234.396834,445.523258 224.970937,390.31173 224.872556,329.261666 C224.776034,269.933716 233.361062,204.837594 241.873697,152 L263.801252,155.470164 Z M101.105221,190.138469 C110.399327,240.516951 119.938453,302.411412 120.682798,358.130315 C121.453131,415.810212 112.617512,467.177523 84.3138341,494 L69,477.941697 C92.0468563,456.100405 99.1914562,410.493863 98.4953727,358.39141 C97.7733025,304.331668 88.3993797,243.640837 79.2649094,194.130825 L101.105221,190.138469 L101.105221,190.138469 Z" id="Fill-68" fill="#2C1C1C"></path>
                <path d="M105.821041,182 C113.582014,254.626593 102.384313,438.52343 43.2184221,489 L28,472.368906 C79.0245537,428.837907 89.6958909,247.419104 82.9492237,184.264414 L105.821041,182" id="Fill-69" fill="#2C1C1C"></path>
                <path d="M297.801266,68 C304.996127,93.0708637 309,120.904413 309,150.214348 C309,171.931971 306.878792,192.841275 302.913453,212.410759 C295.718592,247.927048 287.639283,286.235549 269.955816,309.833718 C226.544438,367.765222 138.510611,364.913954 95.7763314,307.984546 C78.4671957,284.925257 69.9236428,249.445878 62.6076749,214.915077 C58.3102091,194.625855 56,172.860249 56,150.214348 C56,120.904413 60.0075427,93.0708637 67.2005688,68 L297.801266,68" id="Fill-72" fill="#E5915A"></path>
                <path d="M180.662937,362 C132.744171,357.21437 99.056266,331.772175 75.51889,290.854671 C65.1634133,272.851502 67.2501593,245.923782 67.0470744,245.326531 C66.5980512,243.995076 71.5410307,269.264183 82.9957753,285.840793 C103.697413,315.80423 121.237257,330.880099 153.415997,334.844031 C163.654094,336.103208 166.791666,331.572458 170.059658,320.721101 C171.639624,315.478974 174.842407,315.789013 180.838074,315.439031 C186.83188,315.789013 189.688112,315.478974 191.268077,320.721101 C194.536071,331.572458 197.673641,336.103208 207.909876,334.844031 C240.090478,330.880099 256.929773,314.735262 277.633275,284.771826 C289.088019,268.193314 295.428372,239.7154 294.977487,241.044952 C294.776265,241.644108 296.164323,272.851502 285.808847,290.854671 C262.271471,331.772175 228.583566,357.21437 180.662937,362" id="Fill-75" fill="#413333"></path>
                <path d="M85.9399805,141.946139 L85.9512334,150.22858 C86.1462826,257.133629 88.1549152,405.476997 26.1442407,452.091844 C19.1918581,457.318739 7.23946199,438.478048 13.0534316,433.876071 C54.9646505,400.712729 62.1852259,298.767818 63.3423935,206.860704 C57.228348,271.463745 52.4608927,345.086064 19.570704,402.289005 C16.5568172,407.530819 -2.94061127,396.603221 0.378977825,390.63203 C32.5564865,332.748213 36.3149365,261.703895 41.6787925,196.591596 C44.4526186,162.935784 44.7001812,129.149395 41.4256034,97.4765193 C99.1001821,91.6041939 33.4117026,141.946139 85.9399805,141.946139" id="Fill-76" fill="#413333"></path>
                <path d="M310.711931,93 C313.895248,132.846361 318.576057,182.950461 326.442012,232.333342 C333.907539,279.212513 344.216288,325.230333 358.772511,360.57936 C361.264674,366.629368 342.539609,378.686415 338.782163,369.592715 C323.34646,332.253801 312.558657,284.378752 304.835322,235.883379 C303.458505,227.241842 302.178595,218.576015 300.986452,209.940083 C301.357626,235.808642 302.630222,261.86778 305.308888,286.626486 C311.143443,340.168517 324.138175,387.3074 347.178363,412.219316 C352.442448,417.908719 339.436745,436.417491 331.375145,427.706819 C304.392839,398.54607 289.884157,346.898638 283.583348,289.046115 C277.143578,229.54376 278.589875,163.313152 281.277685,109.382486 L290.156595,109.827175 C289.723254,104.715122 289.315512,99.7319909 288.929711,94.8964672 L310.711931,93" id="Fill-77" fill="#413333"></path>
                <path d="M36.1560101,210 C-22.7691792,195.292582 17.4378979,95.122433 48.9591322,57.9518266 C95.5380559,3.03082321 190.1129,-13.2046142 249.829231,10.7455478 C305.831283,33.205005 327.53939,87.1017316 314.175412,150.718824 C217.407284,123.718221 118.800589,170.823751 36.1560101,210 Z" id="Fill-78" fill="#393939"></path>
                <path d="M36.153655,210 C6.56900726,202.692822 1.97623673,174.071505 8.72331933,142.725228 C114.147181,67.2497282 182.786164,36.6363838 306.545822,63.6921406 C318.567257,88.251863 321.152431,118.484895 314.176916,151.3395 C217.407445,124.621595 118.799381,171.233929 36.153655,210 Z" id="Fill-79" fill="#6E9CD4"></path>
                <path d="M319.206343,150.848494 C223.151054,123.451484 125.270742,171.24859 43.2349607,211 C32.262691,208.200099 24.752438,202.350405 20,194.441014 C128.061739,113.970816 196.59418,81.3261208 322.931973,110.540511 C323.315414,123.364401 322.078451,136.873596 319.206343,150.848494" id="Fill-80" fill="#525252"></path>
                <path d="M324.576227,335.205566 C331.121344,331.470424 338.133004,329.671747 345.19479,328.082521 C346.482608,327.792235 347.828262,328.271759 348.281309,329.458626 C350.469443,335.216589 352.6595,340.974548 354.849561,346.73251 C355.302611,347.921214 354.706899,349.429603 353.405587,349.673957 C345.628564,351.127228 338.933073,353.681014 332.788951,356.797002 C331.618732,357.390436 330.153553,356.607764 329.702432,355.420898 C327.512372,349.662934 325.322313,343.904972 323.132253,338.145177 C322.681129,336.958306 323.438784,335.854114 324.576227,335.205566" id="Fill-82" fill="#6E9CD4"></path>
                <path d="M69.2985671,367.470955 C70.460482,367.952195 71.2417385,369.123404 70.9317735,370.410577 C69.4345165,376.653164 67.9372593,382.893819 66.4381898,389.134474 C66.1300376,390.421647 64.848487,391.345474 63.6811343,390.875828 C57.4564606,388.369129 51.1502169,385.988055 43.7074359,385.425643 C42.4639512,385.332875 41.7642645,383.773194 42.0724167,382.486021 C43.5714865,376.245366 45.0687434,370.004711 46.5660004,363.762124 C46.8759654,362.474951 48.0850094,361.877751 49.3230559,362.02077 C56.4921256,362.842163 63.0376402,364.879219 69.2985671,367.470955 Z" id="Fill-83" fill="#6E9CD4"></path>
                <path d="M23.47508,333.029074 C31.2928809,334.00495 38.4050179,336.164866 45.1940562,338.869058 C46.4507718,339.371319 47.2793318,340.545809 46.9126246,341.810055 C45.1365723,347.94223 43.3605202,354.074402 41.5844681,360.204668 C41.2177612,361.468914 39.7965228,362.353124 38.5318787,361.86232 C31.7805024,359.244069 24.9399265,356.748039 16.8129027,356.024246 C15.4570772,355.902025 14.7276272,354.347495 15.0943344,353.081337 C16.8703864,346.949165 18.6464385,340.818902 20.4224906,334.688638 C20.7891977,333.422481 22.123219,332.861016 23.47508,333.029074" id="Fill-84" fill="#6E9CD4"></path>
            </g>
        </g>
    </g>
</svg>